<?xml version="1.0" encoding="UTF-8" standalone="no"?>
<svg
   xmlns:dc="http://purl.org/dc/elements/1.1/"
   xmlns:cc="http://creativecommons.org/ns#"
   xmlns:rdf="http://www.w3.org/1999/02/22-rdf-syntax-ns#"
   xmlns:svg="http://www.w3.org/2000/svg"
   xmlns="http://www.w3.org/2000/svg"
   xmlns:sodipodi="http://sodipodi.sourceforge.net/DTD/sodipodi-0.dtd"
   xmlns:inkscape="http://www.inkscape.org/namespaces/inkscape"
   id="svg9795"
   version="1.1"
   viewBox="0 0 253.33438 120.39949"
   height="120.39948mm"
   width="253.33438mm"
   sodipodi:docname="caliper2.svg"
   inkscape:version="0.92.3 (2405546, 2018-03-11)">
  <sodipodi:namedview
     pagecolor="#ffffff"
     bordercolor="#666666"
     borderopacity="1"
     objecttolerance="10"
     gridtolerance="10"
     guidetolerance="10"
     inkscape:pageopacity="0"
     inkscape:pageshadow="2"
     inkscape:window-width="1366"
     inkscape:window-height="656"
     id="namedview1033"
     showgrid="false"
     fit-margin-top="0"
     fit-margin-left="0"
     fit-margin-right="0"
     fit-margin-bottom="0"
     inkscape:zoom="0.88983186"
     inkscape:cx="478.74213"
     inkscape:cy="227.52659"
     inkscape:window-x="0"
     inkscape:window-y="27"
     inkscape:window-maximized="1"
     inkscape:current-layer="g3001" />
  <defs
     id="defs9789" />
  <metadata
     id="metadata9792">
    <rdf:RDF>
      <cc:Work
         rdf:about="">
        <dc:format>image/svg+xml</dc:format>
        <dc:type
           rdf:resource="http://purl.org/dc/dcmitype/StillImage" />
        <dc:title></dc:title>
      </cc:Work>
    </rdf:RDF>
  </metadata>
  <g
     transform="translate(18.414226,-93.773039)"
     id="layer1">
    <g
       style="display:inline"
       transform="matrix(0.26458333,0,0,0.26458333,-16.260946,-201.23927)"
       id="g5557">
      <g
         id="g3001">
        <path
           style="fill:none;stroke:#000000;stroke-width:1.06666672"
           d="m 67.985491,1427.3665 v -207.874"
           id="path3005"
           inkscape:connector-curvature="0" />
        <path
           style="fill:none;stroke:#000000;stroke-width:1.06666672"
           d="M 2.3545256,1312.5122 67.985491,1427.3665"
           id="path3007"
           inkscape:connector-curvature="0" />
        <path
           style="fill:none;stroke:#000000;stroke-width:1.06666672"
           d="m -7.605049,1275.0089 a 75.590551,75.590551 0 0 0 9.9595736,37.5033"
           id="path3009"
           inkscape:connector-curvature="0" />
        <path
           style="fill:none;stroke:#000000;stroke-width:1.06666672"
           d="m -7.6050448,1162.7996 v 112.2093"
           id="path3011"
           inkscape:connector-curvature="0" />
        <path
           style="fill:none;stroke:#000000;stroke-width:1.06666672"
           d="m 30.190227,1125.0043 a 37.795276,37.795276 0 0 0 -37.795276,37.7953"
           id="path3013"
           inkscape:connector-curvature="0" />
        <path
           style="fill:none;stroke:#000000;stroke-width:1.06666672"
           d="m 899.01733,1124.9893 -868.827107,0.015"
           id="path3015"
           inkscape:connector-curvature="0" />
        <path
           style="fill:none;stroke:#000000;stroke-width:1.06666672"
           d="m 899.01733,1115.5405 v 9.4488"
           id="path3017"
           inkscape:connector-curvature="0" />
        <path
           style="fill:none;stroke:#000000;stroke-width:1.06666672"
           d="M 917.91495,1115.5405 H 899.01733"
           id="path3019"
           inkscape:connector-curvature="0" />
        <path
           style="fill:none;stroke:#000000;stroke-width:1.06666672"
           d="m 936.8126,1134.4382 a 18.897637,18.897637 0 0 0 -18.89765,-18.8977"
           id="path3021"
           inkscape:connector-curvature="0" />
        <path
           style="fill:none;stroke:#000000;stroke-width:1.06666672"
           d="m 936.8126,1210.0287 v -75.5905"
           id="path3023"
           inkscape:connector-curvature="0" />
        <path
           style="fill:none;stroke:#000000;stroke-width:1.06666672"
           d="m 917.91495,1228.9264 a 18.897637,18.897637 0 0 0 18.89765,-18.8977"
           id="path3025"
           inkscape:connector-curvature="0" />
        <path
           style="fill:none;stroke:#000000;stroke-width:1.06666672"
           d="m 899.01733,1228.9264 h 18.89762"
           id="path3027"
           inkscape:connector-curvature="0" />
        <path
           style="fill:none;stroke:#000000;stroke-width:1.06666672"
           d="m 899.01733,1219.4775 v 9.4489"
           id="path3029"
           inkscape:connector-curvature="0" />
        <path
           style="fill:none;stroke:#000000;stroke-width:1.06666672"
           d="M 148.68362,1304.5391 97.23798,1432.705"
           id="path3033"
           inkscape:connector-curvature="0" />
        <path
           style="fill:none;stroke:#000000;stroke-width:1.06666672"
           d="m 292.59482,1241.6188 v 51.3665"
           id="path3035"
           inkscape:connector-curvature="0" />
        <path
           style="fill:none;stroke:#000000;stroke-width:1.06666672"
           d="M 75.945938,1241.6188 H 292.59482"
           id="path3037"
           inkscape:connector-curvature="0" />
        <path
           style="fill:none;stroke:#000000;stroke-width:1.06666672"
           d="m 75.945938,1449.4928 v -207.874"
           id="path3039"
           inkscape:connector-curvature="0" />
        <path
           style="fill:none;stroke:#000000;stroke-width:1.06666672"
           d="m 67.985505,1219.4925 831.031825,-0.015"
           id="path3041"
           inkscape:connector-curvature="0" />
        <path
           style="fill:none;stroke:#000000;stroke-width:1.06666672"
           d="M 292.59482,1292.9853 H 172.43366"
           id="path3043"
           inkscape:connector-curvature="0" />
        <path
           style="fill:none;stroke:#000000;stroke-width:1.06666672"
           d="m 172.43366,1292.9853 a 27.719235,27.719235 0 0 0 -23.75004,11.5538"
           id="path3045"
           inkscape:connector-curvature="0" />
        <path
           style="fill:none;stroke:#000000;stroke-width:1.06666672"
           d="M 75.945938,1449.4928 97.23798,1432.705"
           id="path3047"
           inkscape:connector-curvature="0" />
        <path
           style="fill:none;stroke:#000000;stroke-width:1.06666672"
           d="m 115.15793,1305.5258 a 6.4251968,6.4251968 0 1 0 -12.85039,0 6.4251968,6.4251968 0 1 0 12.85039,0 z"
           id="path3049"
           inkscape:connector-curvature="0" />
        <path
           style="fill:none;stroke:#000000;stroke-width:1.06666672"
           d="m 269.58426,1274.015 a 6.4252,6.4252 0 1 0 -12.8504,0 6.4252,6.4252 0 1 0 12.8504,0 z"
           id="path3051"
           inkscape:connector-curvature="0" />
        <path
           style="fill:none;stroke:#000000;stroke-width:1.06666672"
           d="M 575.01198,1458.2677 V 1241.6188"
           id="path3053"
           inkscape:connector-curvature="0" />
        <path
           style="fill:none;stroke:#000000;stroke-width:1.06666672"
           d="m 512.55532,1458.2677 h 62.45666"
           id="path3055"
           inkscape:connector-curvature="0" />
        <path
           style="fill:none;stroke:#000000;stroke-width:1.06666672"
           d="m 544.91291,1278.7402 a 6.4251968,6.4251968 0 1 0 -12.85039,0 6.4251968,6.4251968 0 1 0 12.85039,0 z"
           id="path3057"
           inkscape:connector-curvature="0" />
        <path
           style="fill:none;stroke:#000000;stroke-width:1.06666672"
           d="m 544.91291,1429.9213 a 6.4251968,6.4251968 0 1 0 -12.85039,0 6.4251968,6.4251968 0 1 0 12.85039,0 z"
           id="path3059"
           inkscape:connector-curvature="0" />
        <path
           style="fill:none;stroke:#000000;stroke-width:1.06666672"
           d="m 512.55532,1241.6188 v 216.6489"
           id="path3061"
           inkscape:connector-curvature="0" />
        <path
           style="fill:none;stroke:#000000;stroke-width:1.06666672"
           d="M 575.01198,1241.6188 H 512.55532"
           id="path3063"
           inkscape:connector-curvature="0" />
        <path
           style="fill:none;stroke:#000000;stroke-width:1.06666672"
           d="m 506.64233,1241.6188 v 216.6489"
           id="path3065"
           inkscape:connector-curvature="0" />
        <path
           style="fill:none;stroke:#000000;stroke-width:1.06666672"
           d="m 444.18566,1241.6188 h 62.45667"
           id="path3067"
           inkscape:connector-curvature="0" />
        <path
           style="fill:none;stroke:#000000;stroke-width:1.06666672"
           d="m 476.54325,1421.1463 a 6.4251968,6.4251968 0 1 0 -12.85039,0 6.4251968,6.4251968 0 1 0 12.85039,0 z"
           id="path3069"
           inkscape:connector-curvature="0" />
        <path
           style="fill:none;stroke:#000000;stroke-width:1.06666672"
           d="m 476.54325,1269.9652 a 6.4251968,6.4251968 0 1 0 -12.85039,0 6.4251968,6.4251968 0 1 0 12.85039,0 z"
           id="path3071"
           inkscape:connector-curvature="0" />
        <path
           style="fill:none;stroke:#000000;stroke-width:1.06666672"
           d="M 506.64233,1458.2677 H 444.18566"
           id="path3073"
           inkscape:connector-curvature="0" />
        <path
           style="fill:none;stroke:#000000;stroke-width:1.06666672"
           d="m 323.72649,1271.0546 a 6.4251968,6.4251968 0 1 0 -12.85039,0 6.4251968,6.4251968 0 1 0 12.85039,0 z"
           id="path3075"
           inkscape:connector-curvature="0" />
        <path
           style="fill:none;stroke:#000000;stroke-width:1.06666672"
           d="m 292.21572,1425.4809 a 6.4252,6.4252 0 1 0 -12.8504,0 6.4252,6.4252 0 1 0 12.8504,0 z"
           id="path3077"
           inkscape:connector-curvature="0" />
        <path
           style="fill:none;stroke:#000000;stroke-width:1.06666672"
           d="m 286.77718,1385.53 a 27.719235,27.719235 0 0 0 11.55387,-23.7501"
           id="path3079"
           inkscape:connector-curvature="0" />
        <path
           style="fill:none;stroke:#000000;stroke-width:1.06666672"
           d="m 286.77718,1385.53 -128.16584,51.4457"
           id="path3081"
           inkscape:connector-curvature="0" />
        <path
           style="fill:none;stroke:#000000;stroke-width:1.06666672"
           d="m 141.82346,1458.2677 16.78788,-21.292"
           id="path3083"
           inkscape:connector-curvature="0" />
        <path
           style="fill:none;stroke:#000000;stroke-width:1.06666672"
           d="m 298.33105,1241.6188 v 120.1611"
           id="path3085"
           inkscape:connector-curvature="0" />
        <path
           style="fill:none;stroke:#000000;stroke-width:1.06666672"
           d="M 141.82346,1458.2677 H 349.69747"
           id="path3087"
           inkscape:connector-curvature="0" />
        <path
           style="fill:none;stroke:#000000;stroke-width:1.06666672"
           d="M 349.69747,1241.6188 H 298.33105"
           id="path3089"
           inkscape:connector-curvature="0" />
        <path
           style="fill:none;stroke:#000000;stroke-width:1.06666672"
           d="m 349.69747,1458.2677 h 94.48819"
           id="path3091"
           inkscape:connector-curvature="0" />
        <path
           style="fill:none;stroke:#000000;stroke-width:1.06666672"
           d="m 349.69747,1241.6188 h 94.48819"
           id="path3093"
           inkscape:connector-curvature="0" />
        <path
           style="fill:none;stroke:#000000;stroke-width:1.06666672"
           d="M 639.81937,1458.2677 V 1241.6188"
           id="path3095"
           inkscape:connector-curvature="0" />
        <path
           style="fill:none;stroke:#000000;stroke-width:1.06666672"
           d="m 581.13147,1458.2677 h 58.6879"
           id="path3097"
           inkscape:connector-curvature="0" />
        <path
           style="fill:none;stroke:#000000;stroke-width:1.06666672"
           d="m 609.7203,1278.7402 a 6.4251968,6.4251968 0 1 0 -12.85039,0 6.4251968,6.4251968 0 1 0 12.85039,0 z"
           id="path3099"
           inkscape:connector-curvature="0" />
        <path
           style="fill:none;stroke:#000000;stroke-width:1.06666672"
           d="m 609.7203,1429.9213 a 6.4251968,6.4251968 0 1 0 -12.85039,0 6.4251968,6.4251968 0 1 0 12.85039,0 z"
           id="path3101"
           inkscape:connector-curvature="0" />
        <path
           style="fill:none;stroke:#000000;stroke-width:1.06666672"
           d="m 581.13147,1241.6188 v 216.6489"
           id="path3103"
           inkscape:connector-curvature="0" />
        <path
           style="fill:none;stroke:#000000;stroke-width:1.06666672"
           d="m 639.81937,1241.6188 h -58.6879"
           id="path3105"
           inkscape:connector-curvature="0" />
        <path
           style="fill:none;stroke:#000000;stroke-width:1.06666672"
           d="m 685.41373,1427.9749 a 6.4252,6.4252 0 1 0 -12.8504,0 6.4252,6.4252 0 1 0 12.8504,0 z"
           id="path3107"
           inkscape:connector-curvature="0" />
        <path
           style="fill:none;stroke:#000000;stroke-width:1.06666672"
           d="m 839.84005,1396.4642 a 6.4252,6.4252 0 1 0 -12.8504,0 6.4252,6.4252 0 1 0 12.8504,0 z"
           id="path3109"
           inkscape:connector-curvature="0" />
        <path
           style="fill:none;stroke:#000000;stroke-width:1.06666672"
           d="m 769.71392,1409.0048 a 27.719235,27.719235 0 0 0 23.75005,-11.5539"
           id="path3111"
           inkscape:connector-curvature="0" />
        <path
           style="fill:none;stroke:#000000;stroke-width:1.06666672"
           d="M 793.46397,1397.4509 844.90961,1269.285"
           id="path3113"
           inkscape:connector-curvature="0" />
        <path
           style="fill:none;stroke:#000000;stroke-width:1.06666672"
           d="m 866.20164,1252.4972 -21.29203,16.7878"
           id="path3115"
           inkscape:connector-curvature="0" />
        <path
           style="fill:none;stroke:#000000;stroke-width:1.06666672"
           d="m 708.42429,1409.0048 h 61.28963"
           id="path3117"
           inkscape:connector-curvature="0" />
        <path
           style="fill:none;stroke:#000000;stroke-width:1.06666672"
           d="m 866.20164,1252.4972 v 204.1053"
           id="path3119"
           inkscape:connector-curvature="0" />
        <path
           style="fill:none;stroke:#000000;stroke-width:1.06666672"
           d="M 866.20164,1456.6025 H 649.55277"
           id="path3121"
           inkscape:connector-curvature="0" />
        <path
           style="fill:none;stroke:#000000;stroke-width:1.06666672"
           d="m 649.55277,1456.6025 v -47.5977"
           id="path3123"
           inkscape:connector-curvature="0" />
        <path
           style="fill:none;stroke:#000000;stroke-width:1.06666672"
           d="m 873.22205,1461.8105 -831.031827,0.015"
           id="path3125"
           inkscape:connector-curvature="0" />
        <path
           style="fill:none;stroke:#000000;stroke-width:1.06666672"
           d="m 42.190223,1461.8254 v -5.6842"
           id="path3127"
           inkscape:connector-curvature="0" />
        <path
           style="fill:none;stroke:#000000;stroke-width:1.06666672"
           d="M 42.190223,1456.1412 H 23.292604"
           id="path3129"
           inkscape:connector-curvature="0" />
        <path
           style="fill:none;stroke:#000000;stroke-width:1.06666672"
           d="M 23.292597,1456.1412 A 18.897637,18.897637 0 0 0 4.3949589,1475.0389"
           id="path3131"
           inkscape:connector-curvature="0" />
        <path
           style="fill:none;stroke:#000000;stroke-width:1.06666672"
           d="m 4.3949557,1475.0389 v 75.5905"
           id="path3133"
           inkscape:connector-curvature="0" />
        <path
           style="fill:none;stroke:#000000;stroke-width:1.06666672"
           d="M 4.3949589,1550.6294 A 18.897637,18.897637 0 0 0 23.292597,1569.527"
           id="path3135"
           inkscape:connector-curvature="0" />
        <path
           style="fill:none;stroke:#000000;stroke-width:1.06666672"
           d="M 23.292604,1569.527 H 42.190223"
           id="path3137"
           inkscape:connector-curvature="0" />
        <path
           style="fill:none;stroke:#000000;stroke-width:1.06666672"
           d="m 42.190223,1569.527 v -5.684"
           id="path3139"
           inkscape:connector-curvature="0" />
        <path
           style="fill:none;stroke:#000000;stroke-width:1.06666672"
           d="m 42.190223,1563.843 868.827107,-0.015"
           id="path3141"
           inkscape:connector-curvature="0" />
        <path
           style="fill:none;stroke:#000000;stroke-width:1.06666672"
           d="m 911.01732,1560.0634 a 37.795276,37.795276 0 0 0 37.79528,-37.7953"
           id="path3143"
           inkscape:connector-curvature="0" />
        <path
           style="fill:none;stroke:#000000;stroke-width:1.06666672"
           d="M 948.8126,1522.2681 V 1410.0588"
           id="path3145"
           inkscape:connector-curvature="0" />
        <path
           style="fill:none;stroke:#000000;stroke-width:1.06666672"
           d="m 948.8126,1410.0588 a 75.590551,75.590551 0 0 0 -9.95958,-37.5035"
           id="path3147"
           inkscape:connector-curvature="0" />
        <path
           style="fill:none;stroke:#000000;stroke-width:1.06666672"
           d="M 938.85302,1372.5553 873.22206,1257.7011"
           id="path3149"
           inkscape:connector-curvature="0" />
        <path
           style="fill:none;stroke:#000000;stroke-width:1.06666672"
           d="m 873.22206,1257.7011 v 204.1094"
           id="path3151"
           inkscape:connector-curvature="0" />
        <path
           style="fill:none;stroke:#000000;stroke-width:1.06666672"
           d="m 39.093077,1297.361 a 6.4251968,6.4251968 0 1 0 -12.850393,0 6.4251968,6.4251968 0 1 0 12.850393,0 z"
           id="path3153"
           inkscape:connector-curvature="0" />
        <path
           style="fill:none;stroke:#000000;stroke-width:1.06666672"
           d="m 40.301781,1161.9861 a 6.4251968,6.4251968 0 1 0 -12.850393,0 6.4251968,6.4251968 0 1 0 12.850393,0 z"
           id="path3155"
           inkscape:connector-curvature="0" />
        <path
           style="fill:none;stroke:#000000;stroke-width:1.06666672"
           d="m 912.98605,1168.0297 a 6.4252,6.4252 0 1 0 -12.8504,0 6.4252,6.4252 0 1 0 12.8504,0 z"
           id="path3157"
           inkscape:connector-curvature="0" />
        <path
           style="fill:none;stroke:#000000;stroke-width:1.06666672"
           d="m 914.96487,1387.7067 a 6.4252,6.4252 0 1 0 -12.8504,0 6.4252,6.4252 0 1 0 12.8504,0 z"
           id="path3159"
           inkscape:connector-curvature="0" />
        <path
           style="fill:none;stroke:#000000;stroke-width:1.06666672"
           d="m 913.75617,1523.0815 a 6.4252,6.4252 0 1 0 -12.8504,0 6.4252,6.4252 0 1 0 12.8504,0 z"
           id="path3161"
           inkscape:connector-curvature="0" />
        <path
           style="fill:none;stroke:#000000;stroke-width:1.06666672"
           d="m 41.071902,1517.038 a 6.425197,6.425197 0 1 0 -12.850394,0 6.425197,6.425197 0 1 0 12.850394,0 z"
           id="path3163"
           inkscape:connector-curvature="0" />
        <path
           style="fill:none;stroke:#000000;stroke-width:1.06666672"
           d="m 708.42429,1409.0048 a 29.43576,29.43576 0 0 0 -58.87152,0"
           id="path3165"
           inkscape:connector-curvature="0" />
        <path
           style="fill:none;stroke:#000000;stroke-width:1.06666672"
           d="m 911.01732,1560.0634 10e-6,3.7647"
           id="path3167"
           inkscape:connector-curvature="0" />
      </g>
    </g>
  </g>
</svg>
