<?xml version="1.0" standalone="no"?>
<!DOCTYPE svg PUBLIC "-//W3C//DTD SVG 1.1//EN" "http://www.w3.org/Graphics/SVG/1.1/DTD/svg11.dtd">
<svg width="132mm" height="106mm" viewBox="-2 -104 132 106" xmlns="http://www.w3.org/2000/svg" version="1.1">
<title>OpenSCAD Model</title>
<path d="
M 102.847,1.56366 L 103.6,-0 L 103.6,-101.6 L 102.847,-103.164 L 101.155,-103.55 L -0.445038,-103.55
 L -1.80193,-102.468 L -1.80193,0.867767 L -0.445038,1.94984 L 101.155,1.94984 z
M 10,-85 L 10,-95 L 15,-95 L 15,-85 z
M 51.6,-85 L 51.6,-95 L 56.6,-95 L 56.6,-85 z
M 86.6,-85 L 86.6,-95 L 91.6,-95 L 91.6,-85 z
M 10,-65 L 10,-75 L 15,-75 L 15,-65 z
M 51.6,-65 L 51.6,-75 L 56.6,-75 L 56.6,-65 z
M 86.6,-65 L 86.6,-75 L 91.6,-75 L 91.6,-65 z
M 10,-45 L 10,-55 L 15,-55 L 15,-45 z
M 86.6,-45 L 86.6,-55 L 91.6,-55 L 91.6,-45 z
M 51.6,-45 L 51.6,-55 L 56.6,-55 L 56.6,-45 z
M 10,-25 L 10,-35 L 15,-35 L 15,-25 z
M 51.6,-25 L 51.6,-35 L 56.6,-35 L 56.6,-25 z
M 86.6,-25 L 86.6,-35 L 91.6,-35 L 91.6,-25 z
M 10,-5 L 10,-15 L 15,-15 L 15,-5 z
M 51.6,-5 L 51.6,-15 L 56.6,-15 L 56.6,-5 z
M 86.6,-5 L 86.6,-15 L 91.6,-15 L 91.6,-5 z
M 125.347,1.56366 L 126.1,-0 L 126.1,-5 L 129.1,-5 L 129.1,-15 L 126.1,-15
 L 126.1,-25 L 129.1,-25 L 129.1,-35 L 126.1,-35 L 126.1,-45 L 129.1,-45
 L 129.1,-55 L 126.1,-55 L 126.1,-65 L 129.1,-65 L 129.1,-75 L 126.1,-75
 L 126.1,-85 L 129.1,-85 L 129.1,-95 L 126.1,-95 L 126.1,-101.6 L 125.347,-103.164
 L 123.655,-103.55 L 109.555,-103.55 L 108.198,-102.468 L 108.198,-95 L 105,-95 L 105,-85
 L 108.198,-85 L 108.198,-75 L 105,-75 L 105,-65 L 108.198,-65 L 108.198,-55
 L 105,-55 L 105,-45 L 108.198,-45 L 108.198,-35 L 105,-35 L 105,-25
 L 108.198,-25 L 108.198,-15 L 105,-15 L 105,-5 L 108.198,-5 L 108.198,0.867767
 L 109.555,1.94984 L 123.655,1.94984 z
" stroke="black" fill="lightgray" stroke-width="0.5"/></svg>
