<?xml version="1.0" standalone="no"?>
<!DOCTYPE svg PUBLIC "-//W3C//DTD SVG 1.1//EN" "http://www.w3.org/Graphics/SVG/1.1/DTD/svg11.dtd">
<svg width="140mm" height="25mm" viewBox="-25 -25 160 50" xmlns="http://www.w3.org/2000/svg" version="1.1">
<title>OpenSCAD Model</title>
<path d="
M 121.568,14.9178 L 124.635,14.2658 L 127.5,12.9904 L 130.037,11.1472 L 132.135,8.81677 L 133.703,6.10104
 L 134.672,3.11867 L 135,-0 L 134.672,-3.11867 L 133.703,-6.10104 L 132.135,-8.81677 L 130.037,-11.1472
 L 127.5,-12.9904 L 124.635,-14.2658 L 121.568,-14.9178 L 2.6132,-24.863 L -2.6132,-24.863 L -7.72542,-23.7764
 L -12.5,-21.6506 L -16.7283,-18.5786 L -20.2254,-14.6946 L -22.8386,-10.1684 L -24.4537,-5.19778 L -25,-0
 L -24.4537,5.19778 L -22.8386,10.1684 L -20.2254,14.6946 L -16.7283,18.5786 L -12.5,21.6506 L -7.72542,23.7764
 L -2.6132,24.863 L 2.6132,24.863 z
M -1.47868,9.01959 L -3.38306,8.49084 L -5.12924,7.56506 L -6.63559,6.28557 L -7.83167,4.71216 L -8.66154,2.91841
 L -9.08641,0.988205 L -9.08641,-0.988205 L -8.66154,-2.91841 L -7.83167,-4.71216 L -6.63559,-6.28557 L -5.12924,-7.56506
 L -3.38306,-8.49084 L -1.47868,-9.01959 L 0.494827,-9.12659 L 2.44521,-8.80684 L 4.28125,-8.07529 L 5.9171,-6.96616
 L 7.27628,-5.53128 L 8.29523,-3.83778 L 8.9263,-1.96483 L 9.14,-0 L 8.9263,1.96483 L 8.29523,3.83778
 L 7.27628,5.53128 L 5.9171,6.96616 L 4.28125,8.07529 L 2.44521,8.80684 L 0.494827,9.12659 z
M 118.075,5.92508 L 116.338,5.04016 L 114.96,3.6619 L 114.075,1.92517 L 113.77,-0 L 114.075,-1.92517
 L 114.96,-3.6619 L 116.338,-5.04016 L 118.075,-5.92508 L 120,-6.23 L 121.925,-5.92508 L 123.662,-5.04016
 L 125.04,-3.6619 L 125.925,-1.92517 L 126.23,-0 L 125.925,1.92517 L 125.04,3.6619 L 123.662,5.04016
 L 121.925,5.92508 L 120,6.23 z
" stroke="black" fill="lightgray" stroke-width="0.5"/></svg>
