<?xml version="1.0" standalone="no"?>
<!DOCTYPE svg PUBLIC "-//W3C//DTD SVG 1.1//EN" "http://www.w3.org/Graphics/SVG/1.1/DTD/svg11.dtd">
<svg width="800" height="1500" viewBox="-100 -750 800 1500" xmlns="http://www.w3.org/2000/svg" version="1.1">
<title>OpenSCAD Model</title>
<path d="
M 100,-750 L -100,-750 L -100,750 L 100,750 z
M -2.61307,-375.137 L -7.72537,-376.223 L -12.5,-378.349 L -16.7282,-381.421 L -20.2254,-385.305 L -22.8386,-389.832
 L -24.4536,-394.802 L -25,-400 L -24.4536,-405.198 L -22.8386,-410.168 L -20.2254,-414.695 L -16.7282,-418.578
 L -12.4998,-421.651 L -7.72537,-423.776 L -2.61307,-424.863 L 2.61307,-424.863 L 7.72537,-423.776 L 12.5,-421.651
 L 16.7282,-418.578 L 20.2254,-414.695 L 22.8386,-410.168 L 24.4536,-405.198 L 25,-400 L 24.4536,-394.802
 L 22.8386,-389.832 L 20.2254,-385.305 L 16.7282,-381.421 L 12.5,-378.349 L 7.72537,-376.223 L 2.61307,-375.137
 z
M -2.61307,244.863 L -7.72537,243.776 L -12.5,241.651 L -16.7282,238.578 L -20.2254,234.695 L -22.8386,230.168
 L -24.4536,225.198 L -25,220 L -24.4536,214.802 L -22.8386,209.832 L -20.2254,205.305 L -16.7282,201.421
 L -12.4998,198.349 L -7.72537,196.223 L -2.61307,195.137 L 2.61307,195.137 L 7.72537,196.223 L 12.5,198.349
 L 16.7282,201.421 L 20.2254,205.305 L 22.8386,209.832 L 24.4536,214.802 L 25,220 L 24.4536,225.198
 L 22.8386,230.168 L 20.2254,234.695 L 16.7282,238.578 L 12.5,241.651 L 7.72537,243.776 L 2.61307,244.863
 z
M -2.61307,624.863 L -7.72537,623.776 L -12.5,621.651 L -16.7282,618.578 L -20.2254,614.695 L -22.8386,610.168
 L -24.4536,605.198 L -25,600 L -24.4536,594.802 L -22.8386,589.832 L -20.2254,585.305 L -16.7282,581.421
 L -12.4998,578.349 L -7.72537,576.223 L -2.61307,575.137 L 2.61307,575.137 L 7.72537,576.223 L 12.5,578.349
 L 16.7282,581.421 L 20.2254,585.305 L 22.8386,589.832 L 24.4536,594.802 L 25,600 L 24.4536,605.198
 L 22.8386,610.168 L 20.2254,614.695 L 16.7282,618.578 L 12.5,621.651 L 7.72537,623.776 L 2.61307,624.863
 z
M 700,-300 L 500,-300 L 500,300 L 700,300 z
M 597.387,-175.137 L 592.275,-176.223 L 587.5,-178.349 L 583.272,-181.421 L 579.775,-185.305 L 577.161,-189.832
 L 575.546,-194.802 L 575,-200 L 575.546,-205.198 L 577.161,-210.168 L 579.775,-214.695 L 583.272,-218.578
 L 587.5,-221.651 L 592.275,-223.776 L 597.387,-224.863 L 602.613,-224.863 L 607.725,-223.776 L 612.5,-221.651
 L 616.728,-218.578 L 620.225,-214.695 L 622.839,-210.168 L 624.454,-205.198 L 625,-200 L 624.454,-194.802
 L 622.839,-189.832 L 620.225,-185.305 L 616.728,-181.421 L 612.5,-178.349 L 607.725,-176.223 L 602.613,-175.137
 z
M 597.387,224.863 L 592.275,223.776 L 587.5,221.651 L 583.272,218.578 L 579.775,214.695 L 577.161,210.168
 L 575.546,205.198 L 575,200 L 575.546,194.802 L 577.161,189.832 L 579.775,185.305 L 583.272,181.421
 L 587.5,178.349 L 592.275,176.223 L 597.387,175.137 L 602.613,175.137 L 607.725,176.223 L 612.5,178.349
 L 616.728,181.421 L 620.225,185.305 L 622.839,189.832 L 624.454,194.802 L 625,200 L 624.454,205.198
 L 622.839,210.168 L 620.225,214.695 L 616.728,218.578 L 612.5,221.651 L 607.725,223.776 L 602.613,224.863
 z
" stroke="black" fill="lightgray" stroke-width="0.5"/></svg>
