M48
;GenerationSoftware,Autodesk,EAGLE,9.5.0*%
;CreationDate,2019-10-17T21:45:52Z*%
FMAT,2
ICI,OFF
METRIC,TZ,000.000
T6C0.813
T5C0.900
T4C1.000
T3C1.200
T2C2.000
T1C2.057
%
G90
M71
T1
X12700Y10160
X12700Y15240
T2
X17780Y23540
X17780Y32340
T3
X20360Y6450
X25360Y6450
X25360Y18950
X20360Y18950
T4
X24780Y25440
X24780Y27940
X24780Y30440
T5
X30480Y31750
X30480Y24130
X35560Y31750
X35560Y24130
X10160Y30480
X10160Y38100
T6
X25400Y39370
X22860Y39370
X33020Y39370
X30480Y39370
M30