G04 EAGLE Gerber RS-274X export*
G75*
%MOMM*%
%FSLAX34Y34*%
%LPD*%
%INTop Copper*%
%IPPOS*%
%AMOC8*
5,1,8,0,0,1.08239X$1,22.5*%
G01*
%ADD10C,1.879600*%
%ADD11C,3.556000*%
%ADD12C,2.159000*%
%ADD13R,1.879600X1.879600*%
%ADD14P,3.247170X8X22.500000*%
%ADD15C,0.889000*%


D10*
X254000Y393700D03*
X228600Y393700D03*
X330200Y393700D03*
X304800Y393700D03*
D11*
X127000Y101600D03*
X127000Y152400D03*
D10*
X304800Y317500D03*
X304800Y241300D03*
X355600Y317500D03*
X355600Y241300D03*
X101600Y304800D03*
X101600Y381000D03*
D12*
X203600Y64500D03*
X253600Y64500D03*
X253600Y189500D03*
X203600Y189500D03*
D13*
X247800Y254400D03*
X247800Y279400D03*
X247800Y304400D03*
D14*
X177800Y235400D03*
X177800Y323400D03*
D15*
X203600Y189500D02*
X203600Y178200D01*
X127000Y101600D01*
X203600Y189500D02*
X240700Y152400D01*
X304800Y152400D01*
X355600Y203200D01*
X355600Y241300D01*
X101600Y304800D02*
X101600Y177800D01*
X127000Y152400D01*
X247800Y279400D02*
X247800Y304400D01*
X247800Y279400D02*
X127000Y279400D01*
X101600Y304800D01*
X253600Y189500D02*
X304800Y240700D01*
X304800Y241300D01*
X304800Y317500D02*
X288567Y333733D01*
X288567Y359133D01*
X254000Y393700D01*
X330200Y393700D02*
X355600Y368300D01*
X355600Y317500D01*
X114300Y393700D02*
X101600Y381000D01*
X114300Y393700D02*
X228600Y393700D01*
X304800Y393700D02*
X304800Y355600D01*
X330200Y330200D01*
X330200Y279400D01*
X298200Y279400D01*
X273200Y254400D01*
X247800Y254400D01*
M02*
