<?xml version="1.0" standalone="no"?>
<!DOCTYPE svg PUBLIC "-//W3C//DTD SVG 1.1//EN" "http://www.w3.org/Graphics/SVG/1.1/DTD/svg11.dtd">
<svg width="114mm" height="272mm" viewBox="-57 -235 114 272" xmlns="http://www.w3.org/2000/svg" version="1.1">
<title>OpenSCAD Model</title>
<path d="
M 54.5,-234.5 L -54.5,-234.5 L -54.5,-165.5 L 54.5,-165.5 z
M 34.0098,-195.662 L 32.2255,-196.521 L 30.9907,-198.069 L 30.55,-200 L 30.9907,-201.931 L 32.2255,-203.479
 L 34.0098,-204.338 L 35.9902,-204.338 L 37.7745,-203.479 L 39.0093,-201.931 L 39.45,-200 L 39.0093,-198.069
 L 37.7745,-196.521 L 35.9902,-195.662 z
M -31.4007,-196.307 L -32.9566,-197.381 L -33.8352,-199.055 L -33.8352,-200.945 L -32.9566,-202.619 L -31.4007,-203.693
 L -29.5239,-203.921 L -27.7561,-203.251 L -26.5024,-201.836 L -26.05,-200 L -26.5024,-198.164 L -27.7561,-196.749
 L -29.5239,-196.079 z
M 55.747,36.0637 L 56.5,34.5 L 56.5,-34.5 L 55.747,-36.0637 L 54.055,-36.4498 L 42,-36.4498
 L 42,-32 L 32,-32 L 32,-36.4498 L 10,-36.4498 L 10,-32 L 0,-32
 L 0,-36.4498 L -22,-36.4498 L -22,-32 L -32,-32 L -32,-36.4498 L -54.945,-36.4498
 L -56.3019,-35.3678 L -56.3019,35.3678 L -54.945,36.4498 L 54.055,36.4498 z
M 34.0098,4.33842 L 32.2255,3.47914 L 30.9907,1.93077 L 30.55,-0 L 30.9907,-1.93077 L 32.2255,-3.47914
 L 34.0098,-4.33842 L 35.9902,-4.33842 L 37.7745,-3.47914 L 39.0093,-1.93077 L 39.45,-0 L 39.0093,1.93077
 L 37.7745,3.47914 L 35.9902,4.33842 z
M -30.6179,3.90137 L -31.2206,3.75667 L -31.7933,3.51947 L -32.3217,3.1956 L -32.7931,2.79306 L -33.1956,2.32175
 L -33.5195,1.79326 L -33.7567,1.22061 L -33.9014,0.617905 L -33.95,-0 L -33.9014,-0.617905 L -33.7567,-1.22061
 L -33.5195,-1.79326 L -33.1956,-2.32175 L -32.7931,-2.79306 L -32.3217,-3.1956 L -31.7933,-3.51947 L -31.2206,-3.75667
 L -30.6179,-3.90137 L -30,-3.95 L -29.3821,-3.90137 L -28.7794,-3.75667 L -28.2067,-3.51947 L -27.6782,-3.1956
 L -27.2069,-2.79306 L -26.8044,-2.32175 L -26.4805,-1.79326 L -26.2433,-1.22061 L -26.0986,-0.617905 L -26.05,-0
 L -26.0986,0.617905 L -26.2433,1.22061 L -26.4805,1.79326 L -26.8044,2.32175 L -27.2069,2.79306 L -27.6782,3.1956
 L -28.2067,3.51947 L -28.7794,3.75667 L -29.3821,3.90137 L -30,3.95 z
" stroke="black" fill="lightgray" stroke-width="0.5"/></svg>
